Coordinates
version=1
nRows=8
nColumns=40
inDegrees=yes

Units are S.I. units (second, meters, Newtons, ...)
If the header above contains a line with 'inDegrees', this indicates whether rotational values are in degrees (yes) or radians (no).

endheader
time	pelvis_tilt	pelvis_list	pelvis_rotation	pelvis_tx	pelvis_ty	pelvis_tz	hip_flexion_r	hip_adduction_r	hip_rotation_r	knee_angle_r	knee_angle_r_beta	ankle_angle_r	subtalar_angle_r	mtp_angle_r	hip_flexion_l	hip_adduction_l	hip_rotation_l	knee_angle_l	knee_angle_l_beta	ankle_angle_l	subtalar_angle_l	mtp_angle_l	lumbar_extension	lumbar_bending	lumbar_rotation	arm_flex_r	arm_add_r	arm_rot_r	elbow_flex_r	pro_sup_r	wrist_flex_r	wrist_dev_r	arm_flex_l	arm_add_l	arm_rot_l	elbow_flex_l	pro_sup_l	wrist_flex_l	wrist_dev_l
      3.30500000	    -19.12719304	      2.12871976	    -18.05629679	     -2.69483698	      1.00046025	      0.35845182	     27.22114777	      5.22139600	     -5.13084337	     39.89995278	      0.69638555	     26.84202039	      0.00000000	      0.00000000	     23.75528938	     -2.95123976	    -14.31645682	     95.72111898	      1.67064869	     -8.04664486	      0.00000000	      0.00000000	    -11.49250715	      8.57702679	     15.31880840	     17.84591941	     -7.35140478	     11.65157062	     90.79210398	     88.41151203	      0.00000000	      0.00000000	      1.30683083	    -26.01613472	     31.95596859	     50.59870637	     88.20522609	      0.00000000	      0.00000000
      3.31000000	    -19.76546398	      3.38609161	    -18.76019484	     -2.66712030	      0.99805814	      0.35886123	     26.29211048	      4.10807076	     -3.82771270	     39.38679305	      0.68742922	     27.86290873	      0.00000000	      0.00000000	     27.57832142	     -2.69159051	    -13.99115100	     97.92153068	      1.70905312	     -6.63994857	      0.00000000	      0.00000000	    -10.69025227	      7.38817977	     15.04642407	     21.38943565	     -5.72659911	     14.79550091	     90.76026052	     88.39587692	      0.00000000	      0.00000000	     -3.74007303	    -27.10898408	     25.80568419	     52.62680809	     88.24198825	      0.00000000	      0.00000000
      3.31500000	    -20.53606555	      4.71312991	    -19.21459310	     -2.63961707	      0.99540127	      0.35899559	     25.54281559	      2.79647241	     -2.79573992	     38.76070480	      0.67650192	     28.61821995	      0.00000000	      0.00000000	     31.67892449	     -2.40906946	    -13.44277654	     99.85756519	      1.74284330	     -5.48461351	      0.00000000	      0.00000000	     -9.67622887	      6.13850453	     14.63722301	     24.72868326	     -4.02091081	     17.61224155	     90.81473260	     88.37953457	      0.00000000	      0.00000000	     -8.84123498	    -28.01119519	     19.79001098	     54.87322047	     88.28879295	      0.00000000	      0.00000000
      3.32000000	    -21.49611831	      6.13323822	    -19.46895188	     -2.61245478	      0.99252546	      0.35886350	     25.04207732	      1.34212966	     -1.92220274	     38.02310080	      0.66362830	     28.97034086	      0.00000000	      0.00000000	     36.10272601	     -2.08592730	    -12.74231618	    101.49271857	      1.77138211	     -4.45355988	      0.00000000	      0.00000000	     -8.39645357	      4.81385949	     14.27613555	     27.79490661	     -2.32778474	     19.92099661	     91.02376796	     88.38313960	      0.00000000	      0.00000000	    -13.77571087	    -28.72918196	     14.15246771	     57.15167267	     88.31930411	      0.00000000	      0.00000000
      3.32500000	    -22.49098065	      7.43503113	    -19.34315815	     -2.58512777	      0.98972510	      0.35829988	     24.44245213	     -0.18498138	     -1.44171539	     37.03461390	      0.64637595	     29.05974773	      0.00000000	      0.00000000	     40.58121081	     -1.72504708	    -11.69926692	    102.80928197	      1.79436047	     -3.49100016	      0.00000000	      0.00000000	     -7.06725699	      3.59810418	     13.72439445	     30.66733871	     -0.73676932	     21.90116240	     91.35998518	     88.34456565	      0.00000000	      0.00000000	    -18.56269846	    -29.30376491	      8.93297213	     59.47212027	     88.35059201	      0.00000000	      0.00000000
      3.33000000	    -23.57102447	      8.71511455	    -19.00055899	     -2.55764154	      0.98688127	      0.35764255	     23.84100806	     -1.76402011	     -1.15216066	     35.86409376	      0.62594652	     28.73035056	      0.00000000	      0.00000000	     45.11974357	     -1.30880505	    -10.52085893	    103.75584613	      1.81088113	     -2.65820063	      0.00000000	      0.00000000	     -5.59706015	      2.38041722	     13.20293184	     33.24556272	      0.74314803	     23.47456904	     91.80067132	     88.32661517	      0.00000000	      0.00000000	    -23.13399731	    -29.80897283	      4.17128477	     61.69389653	     88.39066462	      0.00000000	      0.00000000
      3.33500000	    -24.66376921	      9.93353762	    -18.44577951	     -2.52994370	      0.98424764	      0.35683624	     23.14334036	     -3.37142639	     -1.03724681	     34.51159439	      0.60234095	     27.92936961	      0.00000000	      0.00000000	     49.59688313	     -0.81977824	     -9.25652141	    104.29655357	      1.82031826	     -1.78430785	      0.00000000	      0.00000000	     -4.10606977	      1.16954053	     12.65042491	     35.60001564	      2.06959985	     24.70457321	     92.37558388	     88.32508953	      0.00000000	      0.00000000	    -27.44772562	    -30.24299154	     -0.15624549	     63.76850004	     88.41106642	      0.00000000	      0.00000000
      3.34000000	    -25.74762990	     10.98082235	    -17.69662936	     -2.50184985	      0.98186118	      0.35588424	     22.23228573	     -4.87992488	     -1.06944397	     32.89688149	      0.57415890	     26.68010530	      0.00000000	      0.00000000	     53.93566345	     -0.32533535	     -7.88308625	    104.44436125	      1.82289799	     -1.20612298	      0.00000000	      0.00000000	     -2.65382118	      0.08295270	     12.05504147	     37.73800954	      3.18283858	     25.71291649	     93.03668885	     88.28551704	      0.00000000	      0.00000000	    -31.55176644	    -30.57946384	     -4.09335171	     65.70601714	     88.43079636	      0.00000000	      0.00000000
